# xmcd
# Track frame offsets:
# 150
# 16115
# 30538
# 44892
# 63514
# 79489
# 99300
# 115292
# 128931
# 144645
# 158999
#
# Disc length: 2421 seconds
# Revision: 0
# Processed by: cddbd v1.4PL0 Copyright (c) Steve Scherf et al.
# Submitted via: VisiTrax 2.9.5.181 - For more info visit www.synapsa.com
#
DISCID=9809730b
DTITLE=Candace Brooks - Experience
DYEAR=1900
DGENRE=Country
TTITLE0=Who Cares
TTITLE1=You're All Heart
TTITLE2=From The Cradle To The Grave
TTITLE3=And The Band Played On
TTITLE4=Desperado
TTITLE5=Long, Long Time
TTITLE6=What If
TTITLE7=Come Some Rainy Day
TTITLE8=Broken Wing
TTITLE9=Valentine
TTITLE10=Wind Beneath My Wings
EXTD=
EXTT0=
EXTT1=
EXTT2=
EXTT3=
EXTT4=
EXTT5=
EXTT6=
EXTT7=
EXTT8=
EXTT9=
EXTT10=
PLAYORDER=
